<svg data-v-0dd9719b="" version="1.0" xmlns="http://www.w3.org/2000/svg" xmlns:xlink="http://www.w3.org/1999/xlink" width="100%" height="100%" viewBox="0 0 340.000000 250.000000" preserveAspectRatio="xMidYMid meet" color-interpolation-filters="sRGB" style="margin: auto;"> <rect data-v-0dd9719b="" x="0" y="0" width="100%" height="100%" fill="#fff" fill-opacity="1" class="background"></rect> <rect data-v-0dd9719b="" x="0" y="0" width="100%" height="100%" fill="url(#watermark)" fill-opacity="1" class="watermarklayer"></rect> <g data-v-0dd9719b="" fill="#00a0e9" class="icon-text-wrapper icon-svg-group iconsvg" transform="translate(48.11000061035156,94.40398979187012)"><g class="iconsvg-imagesvg" transform="translate(0,0)"><g><rect fill="#00a0e9" fill-opacity="0" stroke-width="2" x="0" y="0" width="60" height="61.19202056051891" class="image-rect"></rect> <svg x="0" y="0" width="60" height="61.19202056051891" filtersec="colorsb9758018286" class="image-svg-svg primary" style="overflow: visible;"><svg xmlns="http://www.w3.org/2000/svg" viewBox="0 0.0013545824913308024 30.95177459716797 31.566667556762695"><g><g><path d="M15 2.14a14.66 14.66 0 0 1 5.87-.68 14.86 14.86 0 0 0-17.8 12.63h1.8A14.87 14.87 0 0 1 15 2.14zm.74.86a14.2 14.2 0 0 0-9.6 11.09h1.7A14.23 14.23 0 0 1 23 2.6a14.06 14.06 0 0 0-7.29.4zm-3.21-2a15.56 15.56 0 0 1 6.12-.67A15.47 15.47 0 0 0 .07 14.09h1.87A15.48 15.48 0 0 1 12.53 1z" fill="#00a0e9"></path><path d="M27.23 22.66a14.9 14.9 0 0 1-2.35 5.43 14.85 14.85 0 0 0-2.05-21.7L21.93 8a14.88 14.88 0 0 1 5.3 14.66zm-1.12.22A14.2 14.2 0 0 0 21.31 9l-.86 1.5a14.23 14.23 0 0 1 2.35 18.91 14.15 14.15 0 0 0 3.31-6.53zm3.29-1.78a15.26 15.26 0 0 1-2.4 5.66 15.49 15.49 0 0 0-2.62-23L23.4 5.4a15.51 15.51 0 0 1 6 15.7z" fill="#fcc800"></path><path d="M3.63 23.21a14.88 14.88 0 0 1-3.52-4.75 14.68 14.68 0 0 0 4.18 6.41 14.87 14.87 0 0 0 15.63 2.67L19 26a14.86 14.86 0 0 1-15.37-2.79zM4 22.13a14.23 14.23 0 0 0 14.41 2.78l-.87-1.5a14.22 14.22 0 0 1-14.16-2.87A14.07 14.07 0 0 1 0 16a14.13 14.13 0 0 0 4 6.13zm-.1 3.74a15.35 15.35 0 0 1-3.68-4.95 15.49 15.49 0 0 0 21.21 9.22l-.94-1.62A15.48 15.48 0 0 1 3.9 25.87z" fill="#e60012"></path></g></g></svg></svg> <!----></g></g> <g transform="translate(67,13.176010131835938)"><g data-gra="path-name" fill-rule="" class="tp-name iconsvg-namesvg"><g transform="scale(1)"><g><path d="M42.33-33.52L42.33-33.52 42.33-32.57Q40.81-32.52 40.05-32.22 39.3-31.91 39.03-31.08 38.77-30.25 38.77-28.5L38.77-28.5 38.77-5.02Q38.77-3.31 39.03-2.46 39.3-1.61 40.05-1.33 40.81-1.04 42.33-0.95L42.33-0.95 42.33 0Q41-0.09 38.99-0.12 36.98-0.14 34.89-0.14L34.89-0.14Q32.62-0.14 30.63-0.12 28.64-0.09 27.41 0L27.41 0 27.41-0.95Q29.02-1.04 29.85-1.33 30.68-1.61 30.96-2.46 31.25-3.31 31.25-5.02L31.25-5.02 31.25-30.63 31.58-30.63 19.84 0.05 19.08 0.05 6.3-30.44 6.3-7.76Q6.3-5.16 6.58-3.76 6.86-2.37 7.84-1.78 8.81-1.18 10.89-0.95L10.89-0.95 10.89 0Q9.99-0.09 8.52-0.12 7.05-0.14 5.78-0.14L5.78-0.14Q4.69-0.14 3.55-0.12 2.41-0.09 1.66 0L1.66 0 1.66-0.95Q3.17-1.18 3.93-1.75 4.69-2.32 4.95-3.62 5.21-4.92 5.21-7.2L5.21-7.2 5.21-28.5Q5.21-30.25 4.95-31.08 4.69-31.91 3.91-32.22 3.12-32.52 1.66-32.57L1.66-32.57 1.66-33.52Q2.41-33.47 3.55-33.42 4.69-33.38 5.78-33.38L5.78-33.38Q7.81-33.38 9.78-33.42 11.74-33.47 13.26-33.52L13.26-33.52 23.2-9.52 22.01-8.43 31.53-33.38Q32.34-33.38 33.19-33.38 34.04-33.38 34.89-33.38L34.89-33.38Q36.98-33.38 38.99-33.42 41-33.47 42.33-33.52ZM62.3-34.18L62.3-34.18Q67.32-34.18 71.09-32.15 74.85-30.11 76.93-26.3 79.02-22.49 79.02-17.04L79.02-17.04Q79.02-11.74 76.89-7.76 74.76-3.79 70.94-1.56 67.13 0.66 62.26 0.66L62.26 0.66Q57.24 0.66 53.47-1.37 49.71-3.41 47.63-7.24 45.54-11.08 45.54-16.48L45.54-16.48Q45.54-21.78 47.7-25.75 49.85-29.73 53.62-31.96 57.38-34.18 62.3-34.18ZM62.11-33.33L62.11-33.33Q59.46-33.33 57.5-31.2 55.53-29.07 54.47-25.33 53.4-21.59 53.4-16.66L53.4-16.66Q53.4-11.65 54.61-7.93 55.82-4.21 57.88-2.2 59.94-0.19 62.45-0.19L62.45-0.19Q65.1-0.19 67.06-2.32 69.03-4.45 70.09-8.21 71.16-11.98 71.16-16.85L71.16-16.85Q71.16-21.92 69.95-25.61 68.74-29.31 66.68-31.32 64.62-33.33 62.11-33.33ZM113.29-33.52L113.29-33.52 113.29-32.62Q111.78-32.29 110.05-31.29 108.32-30.3 106.43-28.07L106.43-28.07 97.53-17.47 100.27-21.4 111.54-3.83Q112.2-2.75 112.96-2.08 113.72-1.42 114.95-0.95L114.95-0.95 114.95 0Q113.29-0.09 111.26-0.12 109.22-0.14 107.56-0.14L107.56-0.14Q106.57-0.14 105.15-0.12 103.73-0.09 101.55 0L101.55 0 101.55-0.95Q103.49-1.04 103.9-1.49 104.3-1.94 103.54-3.08L103.54-3.08 96.68-14.2Q96.01-15.29 95.49-15.84 94.97-16.38 94.45-16.59 93.93-16.81 93.08-16.85L93.08-16.85 93.08-17.85Q95.16-17.9 96.79-18.98 98.43-20.07 100.37-22.3L100.37-22.3 103.16-25.66Q104.96-27.79 105.27-29.33 105.58-30.87 104.65-31.72 103.73-32.57 101.84-32.62L101.84-32.62 101.84-33.52Q103.59-33.47 105.17-33.42 106.76-33.38 108.84-33.38L108.84-33.38Q111.59-33.38 113.29-33.52ZM96.91-33.52L96.91-33.52 96.91-32.57Q95.4-32.52 94.62-32.22 93.83-31.91 93.6-31.08 93.36-30.25 93.36-28.5L93.36-28.5 93.36-5.02Q93.36-3.31 93.62-2.46 93.88-1.61 94.64-1.33 95.4-1.04 96.91-0.95L96.91-0.95 96.91 0Q95.63-0.09 93.69-0.12 91.75-0.14 89.76-0.14L89.76-0.14Q87.49-0.14 85.48-0.12 83.47-0.09 82.28 0L82.28 0 82.28-0.95Q83.8-1.04 84.56-1.33 85.31-1.61 85.57-2.46 85.83-3.31 85.83-5.02L85.83-5.02 85.83-28.5Q85.83-30.25 85.57-31.08 85.31-31.91 84.53-32.22 83.75-32.52 82.28-32.57L82.28-32.57 82.28-33.52Q83.47-33.47 85.48-33.42 87.49-33.38 89.76-33.38L89.76-33.38Q91.75-33.38 93.69-33.42 95.63-33.47 96.91-33.52ZM127.92-34.13L127.92-34.13Q130.72-34.13 132.23-33.54 133.75-32.95 134.83-32.29L134.83-32.29Q135.4-31.96 135.76-31.79 136.11-31.63 136.44-31.63L136.44-31.63Q137.2-31.63 137.49-33.71L137.49-33.71 138.57-33.71Q138.53-32.81 138.46-31.55 138.39-30.3 138.36-28.26 138.34-26.23 138.34-22.91L138.34-22.91 137.25-22.91Q137.06-25.38 136.11-27.7 135.17-30.02 133.44-31.51 131.71-33 129.2-33L129.2-33Q126.93-33 125.46-31.72 123.99-30.44 123.99-28.17L123.99-28.17Q123.99-26.28 124.94-24.93 125.89-23.58 127.71-22.3 129.53-21.02 132.14-19.22L132.14-19.22Q134.41-17.75 136.21-16.29 138.01-14.82 139.1-12.97 140.18-11.13 140.18-8.57L140.18-8.57Q140.18-5.44 138.55-3.41 136.92-1.37 134.27-0.36 131.61 0.66 128.44 0.66L128.44 0.66Q125.51 0.66 123.76 0.09 122-0.47 120.82-1.09L120.82-1.09Q119.78-1.75 119.21-1.75L119.21-1.75Q118.45-1.75 118.17 0.33L118.17 0.33 117.08 0.33Q117.18-0.8 117.2-2.32 117.22-3.83 117.25-6.27 117.27-8.71 117.27-12.45L117.27-12.45 118.36-12.45Q118.55-9.33 119.42-6.6 120.3-3.88 122.12-2.23 123.95-0.57 126.98-0.57L126.98-0.57Q129.44-0.57 131.14-1.89 132.85-3.22 132.85-5.87L132.85-5.87Q132.85-8.81 130.86-10.72 128.87-12.64 125.74-14.68L125.74-14.68Q123.52-16.14 121.58-17.61 119.64-19.08 118.48-20.97 117.32-22.87 117.32-25.47L117.32-25.47Q117.32-28.45 118.81-30.37 120.3-32.29 122.74-33.21 125.18-34.13 127.92-34.13ZM163.81 0L163.81 0 163.81-0.95Q165.32-1.04 166.08-1.33 166.84-1.61 167.1-2.46 167.36-3.31 167.36-5.02L167.36-5.02 167.36-28.5Q167.36-30.25 167.1-31.08 166.84-31.91 166.06-32.22 165.28-32.52 163.81-32.57L163.81-32.57 163.81-33.52Q165.09-33.47 167.15-33.42 169.21-33.38 171.24-33.38L171.24-33.38Q173.42-33.38 175.34-33.42 177.25-33.47 178.44-33.52L178.44-33.52 178.44-32.57Q176.92-32.52 176.14-32.22 175.36-31.91 175.12-31.08 174.89-30.25 174.89-28.5L174.89-28.5 174.89-5.02Q174.89-3.31 175.15-2.46 175.41-1.61 176.17-1.33 176.92-1.04 178.44-0.95L178.44-0.95 178.44 0Q177.25-0.09 175.34-0.12 173.42-0.14 171.24-0.14L171.24-0.14Q169.21-0.14 167.15-0.12 165.09-0.09 163.81 0ZM143.73 0L143.73 0 143.73-0.95Q145.25-1.04 146.01-1.33 146.76-1.61 147.03-2.46 147.29-3.31 147.29-5.02L147.29-5.02 147.29-28.5Q147.29-30.25 147.03-31.08 146.76-31.91 145.98-32.22 145.2-32.52 143.73-32.57L143.73-32.57 143.73-33.52Q144.97-33.47 146.93-33.42 148.9-33.38 151.22-33.38L151.22-33.38Q153.2-33.38 155.14-33.42 157.09-33.47 158.36-33.52L158.36-33.52 158.36-32.57Q156.85-32.52 156.07-32.22 155.29-31.91 155.05-31.08 154.81-30.25 154.81-28.5L154.81-28.5 154.81-5.02Q154.81-3.31 155.07-2.46 155.33-1.61 156.09-1.33 156.85-1.04 158.36-0.95L158.36-0.95 158.36 0Q157.09-0.09 155.14-0.12 153.2-0.14 151.22-0.14L151.22-0.14Q148.9-0.14 146.93-0.12 144.97-0.09 143.73 0ZM170.44-16.38L151.74-16.38 151.74-17.33 170.44-17.33 170.44-16.38Z" transform="translate(-1.6600000858306885, 34.18000030517578)"></path></g> <!----> <!----> <!----> <!----> <!----> <!----> <!----></g></g> <!----></g></g><defs v-gra="od"></defs></svg>